<svg width="662" height="85" viewBox="0 0 662 85" fill="none" xmlns="http://www.w3.org/2000/svg">
  <path d="M0 78.8748C5.8791 82.8042 14.179 85 24.208 85C41.3842 85 52.9119 76.679 53.0272 61.4237C53.1424 49.4044 47.7244 41.3145 33.4302 36.9229L24.3233 33.918C16.8304 31.4911 13.6026 28.3707 13.6026 22.361C13.6026 16.2358 19.8275 12.8843 28.1274 12.8843C34.6982 12.8843 42.3064 14.849 47.6092 17.9694V4.21655C43.9203 2.25186 37.3496 0.171597 28.0122 0.171597C11.5276 0.171597 0 8.60821 0 23.17C0 34.2648 5.76382 42.4702 18.9053 46.5152L28.8191 49.8667C36.4273 52.2937 39.5398 56.5698 39.5398 62.1171C39.5398 68.3579 34.0065 72.2873 24.7844 72.2873C15.9081 72.2873 5.30271 68.9358 0 63.8507V78.8748Z" fill="url(#paint0_linear_767_55)"/>
  <path d="M67.6312 83.6132H118.583V70.6693H81.1186V1.55844H67.6312V83.6132Z" fill="url(#paint1_linear_767_55)"/>
  <path d="M130.898 83.6132H144.386V1.55844H130.898V83.6132Z" fill="url(#paint2_linear_767_55)"/>
  <path d="M193.495 1.55844H164.445V83.6132H177.933V51.7158H193.495C210.095 51.7158 220.7 40.6211 220.7 26.6371C220.7 12.6532 210.095 1.55844 193.495 1.55844ZM193.38 39.0031H177.933V14.2711H193.38C202.602 14.2711 207.444 19.8185 207.444 26.6371C207.444 33.4558 202.602 39.0031 193.38 39.0031Z" fill="url(#paint3_linear_767_55)"/>
  <path d="M230.328 78.8748C236.207 82.8042 244.507 85 254.536 85C271.712 85 283.24 76.679 283.355 61.4237C283.47 49.4044 278.052 41.3145 263.758 36.9229L254.651 33.918C247.158 31.4911 243.93 28.3707 243.93 22.361C243.93 16.2358 250.155 12.8843 258.455 12.8843C265.026 12.8843 272.634 14.849 277.937 17.9694V4.21655C274.248 2.25186 267.677 0.171597 258.34 0.171597C241.855 0.171597 230.328 8.60821 230.328 23.17C230.328 34.2648 236.092 42.4702 249.233 46.5152L259.147 49.8667C266.755 52.2937 269.867 56.5698 269.867 62.1171C269.867 68.3579 264.334 72.2873 255.112 72.2873C246.236 72.2873 235.63 68.9358 230.328 63.8507V78.8748Z" fill="url(#paint4_linear_767_55)"/>
  <path d="M313.079 83.6132H326.566V14.5023H350.429V1.55844H289.332V14.5023H313.079V83.6132Z" fill="url(#paint5_linear_767_55)"/>
  <path d="M362.577 83.6132H376.064V47.5553L411.454 83.6132H428.4L393.125 47.5553C406.151 45.9373 414.682 37.2696 414.566 24.9036C414.451 11.3819 404.998 1.55844 389.782 1.55844H362.577V83.6132ZM376.064 35.7672V14.04H388.168C396.122 14.04 401.079 17.8538 401.079 24.9036C401.079 31.8378 396.122 35.7672 388.168 35.7672H376.064Z" fill="url(#paint6_linear_767_55)"/>
  <path d="M435.638 83.6132H484.861V70.6693H449.125V48.4799H474.255V35.536H449.125V14.5023H484.861V1.55844H435.638V83.6132Z" fill="url(#paint7_linear_767_55)"/>
  <path d="M581.422 83.6132H594.909V33.1091L621.769 62.4638L648.513 33.1091V83.6132H662V0.171597L621.769 43.7415L581.422 0.171597V83.6132Z" fill="url(#paint8_linear_767_55)"/>
  <path d="M551.475 65.227L560.446 83.4416H574.51L565.526 65.227H551.475Z" fill="url(#paint9_linear_767_55)"/>
  <path d="M559.265 52.5318L533.356 0L492.318 83.4416H506.381L515.488 64.9504L533.356 28.1991L545.263 52.5318H559.265Z" fill="url(#paint10_linear_767_55)"/>
  <defs>
  <linearGradient id="paint0_linear_767_55" x1="2.22465e-06" y1="42.9999" x2="662" y2="43" gradientUnits="userSpaceOnUse">
  <stop stop-color="white"/>
  <stop offset="1" stop-color="white" stop-opacity="0.4"/>
  </linearGradient>
  <linearGradient id="paint1_linear_767_55" x1="2.22465e-06" y1="42.9999" x2="662" y2="43" gradientUnits="userSpaceOnUse">
  <stop stop-color="white"/>
  <stop offset="1" stop-color="white" stop-opacity="0.4"/>
  </linearGradient>
  <linearGradient id="paint2_linear_767_55" x1="2.22465e-06" y1="42.9999" x2="662" y2="43" gradientUnits="userSpaceOnUse">
  <stop stop-color="white"/>
  <stop offset="1" stop-color="white" stop-opacity="0.4"/>
  </linearGradient>
  <linearGradient id="paint3_linear_767_55" x1="2.22465e-06" y1="42.9999" x2="662" y2="43" gradientUnits="userSpaceOnUse">
  <stop stop-color="white"/>
  <stop offset="1" stop-color="white" stop-opacity="0.4"/>
  </linearGradient>
  <linearGradient id="paint4_linear_767_55" x1="2.22465e-06" y1="42.9999" x2="662" y2="43" gradientUnits="userSpaceOnUse">
  <stop stop-color="white"/>
  <stop offset="1" stop-color="white" stop-opacity="0.4"/>
  </linearGradient>
  <linearGradient id="paint5_linear_767_55" x1="2.22465e-06" y1="42.9999" x2="662" y2="43" gradientUnits="userSpaceOnUse">
  <stop stop-color="white"/>
  <stop offset="1" stop-color="white" stop-opacity="0.4"/>
  </linearGradient>
  <linearGradient id="paint6_linear_767_55" x1="2.22465e-06" y1="42.9999" x2="662" y2="43" gradientUnits="userSpaceOnUse">
  <stop stop-color="white"/>
  <stop offset="1" stop-color="white" stop-opacity="0.4"/>
  </linearGradient>
  <linearGradient id="paint7_linear_767_55" x1="2.22465e-06" y1="42.9999" x2="662" y2="43" gradientUnits="userSpaceOnUse">
  <stop stop-color="white"/>
  <stop offset="1" stop-color="white" stop-opacity="0.4"/>
  </linearGradient>
  <linearGradient id="paint8_linear_767_55" x1="2.22465e-06" y1="42.9999" x2="662" y2="43" gradientUnits="userSpaceOnUse">
  <stop stop-color="white"/>
  <stop offset="1" stop-color="white" stop-opacity="0.4"/>
  </linearGradient>
  <linearGradient id="paint9_linear_767_55" x1="2.22465e-06" y1="42.9999" x2="662" y2="43" gradientUnits="userSpaceOnUse">
  <stop stop-color="white"/>
  <stop offset="1" stop-color="white" stop-opacity="0.4"/>
  </linearGradient>
  <linearGradient id="paint10_linear_767_55" x1="2.22465e-06" y1="42.9999" x2="662" y2="43" gradientUnits="userSpaceOnUse">
  <stop stop-color="white"/>
  <stop offset="1" stop-color="white" stop-opacity="0.4"/>
  </linearGradient>
  </defs>
  </svg>
  